<?xml version="1.0" encoding="UTF-8"?>
<!DOCTYPE svg PUBLIC "-//W3C//DTD SVG 1.1//EN" "http://www.w3.org/Graphics/SVG/1.1/DTD/svg11.dtd">
<svg xmlns="http://www.w3.org/2000/svg" xml:space="preserve" width="139.929mm" height="157.429mm" version="1.1" style="shape-rendering:geometricPrecision; text-rendering:geometricPrecision; image-rendering:optimizeQuality; fill-rule:evenodd; clip-rule:evenodd"
viewBox="0 0 13993 15743"
 xmlns:xlink="http://www.w3.org/1999/xlink">
 <defs>
  <style type="text/css">
   <![CDATA[
    .fil5 {fill:none}
    .fil7 {fill:#D2D3D5}
    .fil11 {fill:#171717}
    .fil1 {fill:#3B3B3B}
    .fil2 {fill:#727376}
    .fil0 {fill:#96989A}
    .fil6 {fill:#A9ABAE}
    .fil4 {fill:#BDBFC1}
    .fil3 {fill:#D2D3D5}
    .fil8 {fill:#171717;fill-rule:nonzero}
    .fil9 {fill:#E00004;fill-rule:nonzero}
    .fil10 {fill:#FEFEFE;fill-opacity:0.200000}
    .fil12 {fill:#FEFEFE;fill-opacity:0.400000}
   ]]>
  </style>
    <clipPath id="id0">
     <path d="M9346 11873c-183,181 -411,175 -598,214 10,211 27,407 49,592 41,328 102,621 184,897 95,-225 84,-381 155,-651 85,-322 154,-674 210,-1052zm-3996 1914c145,-413 324,-1078 359,-1805 -152,-7 -360,40 -506,-3 -31,-9 -181,-76 -207,-85 -4,296 16,759 48,1019 24,191 260,706 306,874z"/>
    </clipPath>
    <clipPath id="id1">
     <path d="M3872 9010c939,737 2311,922 3446,899 1422,-30 3604,-920 3947,-2420 113,-690 72,-1447 32,-2228 -1611,-691 -2620,-2512 -2754,-3065 27,928 -1129,3434 -2466,4359l-181 117c-37,22 -75,43 -113,63 43,-40 85,-81 127,-124l162 -176c645,-741 1245,-2056 1436,-3131 -380,581 -1385,1550 -2089,1692 660,-488 1364,-1121 1362,-1955 -1130,807 -2333,1388 -3699,1756 -209,1419 78,3098 790,4213z"/>
    </clipPath>
 </defs>
 <g id="Capa_x0020_1">
  <metadata id="CorelCorpID_0Corel-Layer"/>
  <g id="_962083731936">
   <circle class="fil0" cx="6996" cy="7711" r="6996"/>
   <path class="fil1" d="M11189 13668c1269,-2720 2220,-8309 729,-11131 -716,-1356 -1931,-1927 -3430,-1728 -1526,-1466 -4626,-43 -5825,1205 -3147,3272 186,7555 -876,10572l275 -178c-8,293 32,729 161,995 889,418 2059,679 3041,642 2025,-171 4123,132 5925,-377z"/>
   <path class="fil2" d="M4939 15073c765,678 3611,760 4635,73 -622,-1500 -788,-2562 -751,-3080 368,2 616,-450 546,-143 49,-3 208,-79 244,-110 -132,-405 -116,-1361 -485,-1547 -444,-163 -837,165 -1225,118 158,688 173,709 -625,730 -638,17 -1123,-31 -854,-633 -163,-2 -301,-71 -448,-112 -610,-168 -842,357 -977,800 -60,197 -132,449 -222,573 267,138 638,240 889,209 127,-202 -45,1634 -727,3122z"/>
   <path class="fil3" d="M9346 11873c-183,181 -411,175 -598,214 10,211 27,407 49,592 41,328 102,621 184,897 95,-225 84,-381 155,-651 85,-322 154,-674 210,-1052zm-3996 1914c145,-413 324,-1078 359,-1805 -152,-7 -360,40 -506,-3 -31,-9 -181,-76 -207,-85 -4,296 16,759 48,1019 24,191 260,706 306,874z"/>
   <g style="clip-path:url(#id0)">
    <g>
     <path id="1" class="fil4" d="M7099 10394c1031,0 1868,1108 1868,2475 0,270 -33,530 -93,773 1015,342 1690,946 1690,1635 0,1067 -1621,1932 -3620,1932 -1999,0 -3620,-865 -3620,-1932 0,-752 805,-1404 1979,-1723 -47,-218 -72,-447 -72,-685 0,-1367 836,-2475 1868,-2475z"/>
    </g>
   </g>
   <path class="fil5" d="M9346 11873c-183,181 -411,175 -598,214 10,211 27,407 49,592 41,328 102,621 184,897 95,-225 84,-381 155,-651 85,-322 154,-674 210,-1052zm-3996 1914c145,-413 324,-1078 359,-1805 -152,-7 -360,40 -506,-3 -31,-9 -181,-76 -207,-85 -4,296 16,759 48,1019 24,191 260,706 306,874z"/>
   <path class="fil3" d="M3872 9010c939,737 2311,922 3446,899 1422,-30 3604,-920 3947,-2420 113,-690 72,-1447 32,-2228 -1611,-691 -2620,-2512 -2754,-3065 27,928 -1129,3434 -2466,4359l-181 117c-37,22 -75,43 -113,63 43,-40 85,-81 127,-124l162 -176c645,-741 1245,-2056 1436,-3131 -380,581 -1385,1550 -2089,1692 660,-488 1364,-1121 1362,-1955 -1130,807 -2333,1388 -3699,1756 -209,1419 78,3098 790,4213z"/>
   <g style="clip-path:url(#id1)">
    <g>
     <path id="1" class="fil6" d="M4443 13898c-269,-564 -273,-1240 -268,-1502 -79,-42 -147,-94 -248,-168 447,-541 187,-1796 1297,-1485l5 1 3 2c85,34 172,57 259,66 88,9 177,6 268,-11 71,-4 131,27 177,94 176,-47 185,-236 135,-478 -905,-19 -1862,-156 -2631,-618 272,314 598,575 980,763 -210,221 -366,340 -679,367 -226,-83 -536,-345 -789,-637 179,319 391,463 679,659 -351,21 -560,35 -880,-100 176,263 410,547 738,886 -2065,-931 -2580,-3556 -2414,-5023 137,1506 435,2570 868,3357 283,515 560,857 952,1180 -355,-440 -766,-1292 -712,-1690 115,382 224,704 419,1047 155,155 413,158 561,170 -549,-620 -792,-1310 -917,-1995 362,831 657,1473 1458,1953 153,-17 1347,-533 1463,-632 -1659,-880 -2354,-3543 -1684,-5135 1172,-273 2222,-925 2696,-1382 -434,1101 -964,1617 -1342,1945 771,-188 2268,-1840 2410,-2339 -177,1161 -1018,2761 -1635,3765 1021,-1071 2648,-2760 2927,-4199 1214,2411 2435,2093 2599,2768 99,1768 -474,2824 -1161,4443 130,-55 343,-137 482,-335 139,-350 377,-155 575,-1418 3,862 -141,896 -366,1877 626,-1223 720,-2021 705,-3400 468,2506 -1242,4565 -1548,4966 412,-753 658,-1462 801,-2143 21,-99 39,-196 56,-293 -53,196 -116,386 -188,569 -86,215 -628,425 -842,480 284,-550 491,-1074 635,-1598 -636,999 -2236,1610 -3388,1724 -20,162 -27,373 102,429 33,-47 150,-85 267,-74 390,34 656,-318 1158,-133 457,176 382,1269 534,1691 -74,89 -226,159 -337,187 -13,554 -261,1444 -394,1783 279,67 733,47 1121,-3 93,-12 297,-604 362,-1238 128,628 -47,1166 30,1153 263,-44 499,-87 660,-107 1269,-2721 2139,-8237 649,-11060 -716,-1355 -1851,-1870 -3350,-1671 -1526,-1466 -4546,46 -5745,1293 -3147,3273 257,7241 -805,10259l193 -130c-8,293 23,745 153,1011 354,167 660,298 1025,408 31,9 -122,-547 110,-1111 -71,608 117,1169 156,1179 281,76 584,135 884,165 62,7 -21,-85 131,-783 55,837 194,805 262,806 57,1 114,0 170,-2 73,-184 142,-368 208,-553z"/>
    </g>
   </g>
   <path class="fil5" d="M3872 9010c939,737 2311,922 3446,899 1422,-30 3604,-920 3947,-2420 113,-690 72,-1447 32,-2228 -1611,-691 -2620,-2512 -2754,-3065 27,928 -1129,3434 -2466,4359l-181 117c-37,22 -75,43 -113,63 43,-40 85,-81 127,-124l162 -176c645,-741 1245,-2056 1436,-3131 -380,581 -1385,1550 -2089,1692 660,-488 1364,-1121 1362,-1955 -1130,807 -2333,1388 -3699,1756 -209,1419 78,3098 790,4213z"/>
   <path class="fil7" d="M7917 10444c-138,-8 -236,-31 -290,-139 -52,-104 -44,-220 -48,-357 -54,3 -183,10 -235,11 -124,2 -295,-13 -423,-14 36,248 23,371 -59,469 -86,102 -239,121 -394,109 -102,258 -5,241 83,427 81,171 1164,223 1321,23 169,-215 160,-414 45,-529z"/>
   <path class="fil8" d="M6912 7025c100,211 548,154 609,-37 261,345 -703,477 -609,37z"/>
   <path class="fil9" d="M7816 8221c-176,26 -361,56 -554,90 -196,34 -399,71 -609,112 -42,-218 1113,-547 1163,-202z"/>
   <path class="fil8" d="M9389 15041c-938,590 -3327,590 -4265,0 779,-1879 675,-2602 660,-3804 -224,1011 47,1909 -976,3813 1133,910 3783,931 4913,24 -1023,-1904 -768,-2826 -992,-3837 -15,1202 -119,1925 660,3804z"/>
   <path class="fil10" d="M6505 2596c-181,95 -2782,1833 -2259,578 263,-633 -465,-446 -907,214 -562,837 -1324,1086 -891,89 211,-487 -1032,275 -875,1957 3,0 223,-922 560,-1070 9,-4 -317,1831 204,2294 24,21 -100,-1200 580,-2194 563,-823 692,-776 701,-524 5,152 -166,459 61,468 78,3 1811,-711 2826,-1812z"/>
   <path class="fil10" d="M12333 6540c301,-57 146,-1782 86,-2031 -628,-2573 -1692,-2342 -1166,-1894 545,464 1019,1525 217,777 -2857,-2662 460,1739 -2449,-1080 -212,293 1734,2683 1677,1467 -7,-147 224,-129 352,101 77,139 475,748 636,540 279,-360 674,803 691,1022 32,418 32,695 -44,1098z"/>
   <path class="fil11" d="M6180 7228c-670,828 -2709,1159 -3173,-340 -96,-311 -165,-570 -253,-899 -163,-615 -278,-9 -335,-908 12,-7 28,-14 37,-18 9,-3 25,-12 36,-16l521 -87c637,-79 1250,-181 1898,-148 569,34 1065,73 1364,289 363,261 509,327 784,308 274,-19 434,-85 763,-410 264,-261 753,-370 1318,-485 636,-123 1257,-108 1899,-119l528 13c12,3 28,9 38,11 10,3 26,8 39,13 70,898 -129,313 -205,945 -40,339 -72,604 -124,927 -249,1548 -2315,1506 -3094,780 -571,-642 -541,-1294 -1109,-1254 -587,42 -449,670 -932,1398zm3766 -2541c442,-8 830,105 1033,414 186,283 165,845 92,1176 -186,852 -885,1136 -1858,1022 -778,-91 -1262,-729 -1323,-1646 -51,-776 1289,-952 2056,-966zm-5810 409c-438,54 -807,220 -965,555 -144,306 -44,859 74,1177 304,818 1036,1001 1983,752 758,-199 1147,-899 1079,-1815 -57,-776 -1409,-763 -2171,-669z"/>
   <path class="fil8" d="M9119 13854c265,21 683,5 978,-33 93,-12 297,-604 362,-1238 128,628 -47,1166 30,1153 263,-44 499,-88 660,-108 1269,-2721 2139,-8237 649,-11059 -716,-1356 -1851,-1870 -3350,-1672 -1526,-1465 -4546,47 -5745,1294 -3147,3273 257,7241 -805,10258l193 -129c-8,292 23,745 153,1010 354,167 660,298 1025,409 31,9 -122,-548 110,-1111 -71,607 117,1168 156,1179 281,76 584,135 884,165 62,6 -21,-85 131,-784 55,838 194,806 262,807 95,1 462,-10 553,-17l-84 191c-1006,98 -2224,-293 -3143,-728 -126,-236 -167,-522 -185,-786 -110,170 -273,285 -427,411 1495,-3824 -2240,-7848 1072,-11293 1246,-1296 4332,-2581 5900,-1135 1525,-191 2703,279 3428,1652 1648,3143 804,8356 -651,11456 -452,133 -939,218 -1406,274 -207,25 -498,41 -700,55 2,-74 -14,-149 -49,-220l-1 -1zm-2140 -3704c186,19 364,6 537,-29 -8,-55 -12,-112 -13,-169 -54,3 -107,6 -159,7 -124,2 -251,3 -379,2 10,70 15,133 14,189zm590 167c-219,179 -425,187 -618,30 -16,47 -38,87 -65,120 -85,100 -212,131 -364,121 -106,615 1660,717 1419,-71 -136,-9 -313,-82 -366,-188l-6 -12zm1254 1676c57,-15 114,-32 170,-51 146,-49 346,-132 454,-211 -20,45 -49,86 -84,124 3,21 4,44 6,68 49,-3 208,-79 244,-110 -132,-405 -193,-1293 -561,-1479 -445,-162 -588,151 -975,105 157,688 -232,810 -759,686 -641,194 -1211,12 -943,-590 -162,-2 -301,-71 -447,-111 -610,-169 -766,344 -901,787 -60,197 -116,381 -206,505 300,155 687,205 943,147l-110 238c-171,-4 -340,-25 -504,-74 -30,-9 -58,-18 -83,-27 -4,296 9,576 42,837 36,288 96,553 183,789 -370,-593 -376,-1397 -370,-1688 -79,-43 -147,-94 -248,-168 447,-541 187,-1796 1297,-1485l5 1 3 1c85,35 172,57 259,66 88,10 177,6 268,-10 71,-4 130,26 177,93 176,-46 185,-235 135,-477 -905,-20 -1862,-156 -2631,-618 272,314 598,575 980,763 -210,221 -366,340 -679,366 -226,-83 -536,-344 -789,-636 179,319 391,462 679,659 -351,20 -560,34 -880,-101 176,263 410,548 738,886 -2065,-931 -2580,-3555 -2414,-5022 137,1505 435,2570 868,3357 283,515 560,856 952,1179 -355,-439 -766,-1292 -712,-1689 115,381 224,703 419,1047 155,155 413,158 561,170 -549,-620 -792,-1310 -917,-1995 362,830 657,1472 1458,1953 153,-18 355,-35 472,-135 -1957,-1037 -2209,-3290 -1922,-5277l0 0c-282,72 -563,135 -839,187 2872,-966 4932,-2202 5761,-3193 187,169 -377,676 -988,1138 -13,356 -121,792 -344,1143 456,-450 886,-1061 1210,-1599 -177,1161 -457,2142 -1074,3145 1021,-1071 1505,-2272 1784,-3712 908,1803 1737,2648 3575,3533 -246,-50 -482,-122 -706,-213 99,1769 31,2597 -656,4217 130,-56 343,-137 482,-335 139,-350 296,-839 494,-2101 3,861 -60,1578 -285,2560 626,-1224 720,-2021 705,-3400 468,2506 -1242,4564 -1548,4966 411,-753 658,-1462 801,-2144 21,-98 39,-196 56,-293 -53,197 -116,387 -188,569 -86,216 -628,425 -842,481 284,-550 491,-1075 635,-1598 -636,998 -2236,1610 -3388,1723 -20,162 -27,374 102,430 33,-47 150,-85 267,-75 390,35 656,-318 1158,-133 457,177 382,1270 534,1692 -74,88 -226,159 -337,186 -12,500 -215,1272 -352,1668 -7,-69 -29,-137 -66,-198 68,-182 129,-377 184,-585 85,-322 154,-675 210,-1052 -136,134 -347,216 -523,266l0 -146zm2381 -4551c113,-691 133,-1400 93,-2182 -1611,-691 -2592,-2294 -2726,-2847 29,997 -1337,3558 -2788,4322 797,-742 1362,-1928 1580,-3157 -380,581 -1240,1276 -1944,1418 660,-488 1195,-927 1193,-1762 -415,296 -794,540 -914,607 -671,379 -1592,728 -2528,980 -208,1419 -10,2981 702,4096 939,737 2307,975 3442,952 1422,-30 3546,-928 3890,-2427z"/>
   <path class="fil12" d="M10020 5101c332,113 545,430 584,707 44,310 346,434 388,42 172,-1604 -1754,-1017 -972,-749z"/>
   <path class="fil12" d="M4840 5550c420,154 647,497 651,778 4,314 382,475 505,89 503,-1580 -2144,-1230 -1156,-867z"/>
  </g>
 </g>
</svg>
